<svg width="40" height="40" viewBox="0 0 40 40" fill="none" xmlns="http://www.w3.org/2000/svg">
<g clip-path="url(#clip0_394_2211)">
<circle cx="20" cy="20" r="20" fill="#D1D5DB"/>
<path d="M19.3739 8.72968C19.8843 10.4934 18.5348 12.4368 16.988 12.8875C15.4412 13.3381 13.3279 12.4035 12.8175 10.6398C12.3071 8.87604 13.3785 6.4323 14.9254 5.98165C16.988 5.38075 18.8636 6.96596 19.3739 8.72968Z" fill="white"/>
<path d="M20.2247 8.72968C19.7143 10.4934 21.0638 12.4368 22.6106 12.8875C24.1575 13.3381 26.2708 12.4035 26.7811 10.6398C27.2915 8.87604 26.2201 6.4323 24.6732 5.98165C22.6106 5.38075 20.7351 6.96596 20.2247 8.72968Z" fill="white"/>
<path d="M29.8016 21.6153C29.8016 26.1014 25.4029 27.7689 19.4027 27.7689C13.4025 27.7689 9.10327 26.1014 9.10327 21.6153C9.10327 16.397 13.4025 11.7695 19.4027 11.7695C25.4029 11.7695 29.8016 16.0032 29.8016 21.6153Z" fill="white"/>
<path d="M17.4166 20.7284C17.4166 22.1976 16.4736 23.8094 15.1557 23.8094C13.8379 23.8094 11.709 22.6123 11.709 20.4175C11.709 18.3558 14.0088 17.6226 16.3853 17.9991C17.8418 18.2298 17.4166 19.2592 17.4166 20.7284Z" fill="#D1D5DB"/>
<path d="M16.3158 20.5787C16.3158 20.7991 16.2495 20.9778 15.9181 20.9778C15.5867 20.9778 15.5204 20.7991 15.5204 20.5787C15.5204 20.3583 15.653 20.1797 15.9181 20.1797C16.1832 20.1797 16.3158 20.3583 16.3158 20.5787Z" fill="white"/>
<path d="M21.4258 20.7284C21.4258 22.1976 22.3688 23.8094 23.6867 23.8094C25.0046 23.8094 27.1334 22.6123 27.1334 20.4175C27.1334 18.3558 24.8336 17.6226 22.4571 17.9991C21.0006 18.2298 21.4258 19.2592 21.4258 20.7284Z" fill="#D1D5DB"/>
<path d="M22.5283 20.5787C22.5283 20.7991 22.5946 20.9778 22.926 20.9778C23.2574 20.9778 23.3237 20.7991 23.3237 20.5787C23.3237 20.3583 23.1912 20.1797 22.926 20.1797C22.6609 20.1797 22.5283 20.3583 22.5283 20.5787Z" fill="white"/>
<path fill-rule="evenodd" clip-rule="evenodd" d="M19.7575 29.9998C27.7508 29.9998 33.6107 27.7469 33.6107 21.6863C33.6107 14.1044 27.7508 8.38477 19.7575 8.38477C11.7642 8.38477 6.03687 14.6365 6.03687 21.6863C6.03687 27.7469 11.7642 29.9998 19.7575 29.9998ZM19.4429 27.6721C25.3226 27.6721 29.633 26.0224 29.633 21.5841C29.633 16.0319 25.3226 11.8433 19.4429 11.8433C13.5632 11.8433 9.35034 16.4215 9.35034 21.5841C9.35034 26.0224 13.5632 27.6721 19.4429 27.6721Z" fill="white"/>
<mask id="mask0_394_2211" style="mask-type:alpha" maskUnits="userSpaceOnUse" x="0" y="0" width="40" height="40">
<circle cx="20" cy="20" r="20" fill="#9CA3AF"/>
</mask>
<g mask="url(#mask0_394_2211)">
<ellipse cx="19.5834" cy="37.5" rx="11.25" ry="12.5" fill="white"/>
</g>
</g>
<defs>
<clipPath id="clip0_394_2211">
<rect width="40" height="40" fill="white"/>
</clipPath>
</defs>
</svg>
